<svg width="694" height="833" viewBox="0 0 694 833" fill="none" xmlns="http://www.w3.org/2000/svg">
<path fill-rule="evenodd" clip-rule="evenodd" d="M485.039 540.889C485.7 542.242 488.717 544.43 491.613 545.522C494.508 546.614 497.55 547.948 499.229 550.3C500.908 552.651 501.226 556.019 498.673 561.178C520.642 565.512 508.176 596.585 531.806 607.904C540.139 643.135 527.474 667.991 505.452 692.428C500.099 707.583 514.225 711.473 526.284 704.754C523.39 722.519 493.41 729.011 483.695 747.858C464.999 724.46 470.123 783.738 486.354 763.799C504.601 762.514 489.809 787.418 512.497 785.331C506.496 793.88 512.903 805.923 497.748 809.82C497.142 820.168 474.387 818.005 496.983 826.615C499.481 838.905 462.637 825.763 453.221 828.791C453.157 814.914 424.713 844.037 436.699 819C410.444 798.653 446.035 781.998 446.341 759.855C437.456 739.112 467.246 733.918 453.221 721.321C455.708 718.984 456.861 717.1 456.977 715.535C457.093 713.971 456.171 712.727 454.509 711.67C452.847 710.614 450.445 709.745 447.597 708.932C444.75 708.119 441.459 707.362 438.02 706.528C434.58 705.693 430.993 704.782 427.554 703.662C424.116 702.542 420.826 701.213 417.98 699.543C415.135 697.872 412.735 695.86 411.364 694.001C414.941 695.495 419.821 693.279 420.254 689.644C418.151 683.097 420.086 676.553 425.798 672.494C430.212 668.246 436.409 666.047 442.448 665.406C449.057 663.201 455.59 660.814 462.54 659.808C468.188 657.394 473.066 653.389 478.279 650.13C479.008 646.257 472.443 642.066 470.895 637.646C465.767 632.095 468.65 624.221 465.678 618.054C460.258 612.362 462.843 604.585 461.649 597.665C459.361 590.022 467.185 594.437 470.475 596.646C477.022 603.586 480.934 588.112 487.856 594.31C491.229 594.504 499.268 600.136 499.865 595.648C498.871 585.563 492.153 577.108 484.944 570.48C480.618 565.381 484.105 557.564 481.289 552.138C474.673 549.67 467.007 545.385 466.431 537.485C465.29 534.995 464.352 534.575 465.369 534.73C466.386 534.885 469.358 535.613 470.682 536.489C474.076 542.521 480.98 538.148 485.039 540.889Z" fill="#CCDCD1" stroke="white" stroke-width="1.15603"/>
<path fill-rule="evenodd" clip-rule="evenodd" d="M395.52 516.157C391.919 516.526 389.765 524.669 385.322 519.784C379.182 517.948 374.114 524.593 370.394 528.694C364.877 531.644 368.257 540.76 361.353 541.572C355.623 544.906 349.414 545.171 343.113 543.596C336.231 545.536 331.825 540.983 328.868 535.422C326.018 527.208 318.946 536.033 314.15 531.243C312.213 527.773 305.849 526.078 305.03 522.675C298.345 522.5 292.444 518.14 286.291 519.469C282.454 523.99 276.641 528.651 270.364 526.302C264.337 524.931 262.687 533.034 258.458 535.921C256.138 542.727 248.735 544.099 243.373 546.907C243.375 546.913 243.37 546.927 243.373 546.933C243.379 546.952 243.394 546.993 243.399 547.012C243.404 547.031 243.422 547.072 243.425 547.091C243.428 547.111 243.423 547.15 243.425 547.17C243.542 548.829 239.524 552.388 234.568 554.976C229.326 557.713 222.459 560.233 215.908 560.889C209.357 561.546 203.117 560.34 199.192 555.659C198.471 559.521 197.176 562.473 195.434 564.7C193.692 566.927 191.523 568.438 189.021 569.431C186.519 570.424 183.691 570.901 180.69 571.06C177.688 571.22 174.494 571.044 171.254 570.771C168.015 570.498 167.562 570.13 164.789 569.825C162.653 572.411 160.601 575.491 158.271 578.314C156.749 580.828 153.057 583.447 155.459 586.619C158.033 590.581 160.434 594.703 162.345 599.024C162.942 602.656 161.881 606.37 161.661 609.905C166.123 612.639 170.572 617.871 170.729 625.438C168.549 626.956 168.838 627.299 166.55 628.171C167.948 629.049 168.606 630.386 169.099 632.087C170.412 634.928 171.963 638.071 170.177 641.076C169.604 642.116 168.925 645.503 167.943 645.701C174.048 647.173 176.777 647.913 182.635 651.668C208.376 669.397 188.708 630.369 195.592 625.333C212.451 619.056 225.034 617.571 220.376 635.057C246.603 653.166 263.715 587.521 273.124 627.856C269.617 634.7 259.044 635.817 258.064 636.45C258.058 636.455 258.043 636.472 258.038 636.477C258.034 636.481 258.015 636.499 258.012 636.503C258.01 636.507 258.013 636.525 258.012 636.529C258.012 636.533 258.011 636.551 258.012 636.555C258.213 636.981 263.848 637.343 280.982 639.552C292.422 652.305 306.24 633.228 307.948 620.234C334.156 620.988 312.69 652.548 331.549 667.437C352.22 655.525 342.877 680.79 354.257 681.813C375.538 692.777 395.252 661.258 408.608 684.362C408.488 687.928 409.421 690.896 411.368 694.008C414.945 695.502 419.818 693.28 420.251 689.645C418.149 683.098 420.084 676.542 425.797 672.483C430.211 668.235 436.421 666.054 442.459 665.413C449.069 663.209 455.589 660.822 462.539 659.815C468.186 657.401 473.069 653.377 478.282 650.117C479.011 646.244 472.445 642.053 470.897 637.633C465.769 632.081 468.639 624.219 465.667 618.053C460.247 612.36 462.839 604.578 461.645 597.658C459.358 590.015 467.185 594.424 470.476 596.633C477.023 603.573 480.927 588.122 487.849 594.32C491.221 594.514 499.263 600.148 499.86 595.66C498.865 585.575 492.141 577.11 484.931 570.482C480.606 565.383 484.094 557.564 481.278 552.137C474.662 549.67 467.005 545.398 466.429 537.498C465.698 535.902 465.061 535.133 464.957 534.844C465.14 534.793 465.295 534.76 465.377 534.739C465.203 534.712 465.078 534.697 465.009 534.712C465.007 534.713 464.986 534.711 464.983 534.712C464.979 534.714 464.961 534.736 464.957 534.739C464.955 534.742 464.932 534.761 464.931 534.765C464.93 534.767 464.931 534.789 464.931 534.791C464.931 534.794 464.93 534.814 464.931 534.817C464.932 534.823 464.929 534.837 464.931 534.844C464.378 534.995 463.46 535.252 462.539 535.527C456.786 538.493 450.197 537.842 443.958 537.472C437.285 536.985 433.051 530.518 429.003 525.855C425.485 519.94 418.225 517.824 411.762 517.997C406.888 518.7 402.401 522.528 398.621 517.734C397.452 516.475 396.437 516.063 395.52 516.157ZM293.072 628.303C304.681 628.947 280.523 643.744 293.072 628.303ZM167.601 645.623C167.62 645.633 167.635 645.641 167.654 645.649C167.635 645.644 167.62 645.627 167.601 645.623ZM167.654 645.649C167.737 645.687 167.811 645.708 167.89 645.701C167.81 645.682 167.735 645.668 167.654 645.649Z" fill="#CCDCD1"/>
<path d="M167.654 645.649C167.635 645.641 167.62 645.633 167.601 645.623C167.62 645.627 167.635 645.644 167.654 645.649ZM167.654 645.649C167.737 645.687 167.811 645.708 167.89 645.701C167.81 645.682 167.735 645.668 167.654 645.649ZM395.52 516.157C391.919 516.526 389.765 524.669 385.322 519.784C379.182 517.948 374.114 524.593 370.394 528.694C364.877 531.644 368.257 540.76 361.353 541.572C355.623 544.906 349.414 545.171 343.113 543.596C336.231 545.536 331.825 540.983 328.868 535.422C326.018 527.208 318.946 536.033 314.15 531.243C312.213 527.773 305.849 526.078 305.03 522.675C298.345 522.5 292.444 518.14 286.291 519.469C282.454 523.99 276.641 528.651 270.364 526.302C264.337 524.931 262.687 533.034 258.458 535.921C256.138 542.727 248.735 544.099 243.373 546.907C243.375 546.913 243.37 546.927 243.373 546.933C243.379 546.952 243.394 546.993 243.399 547.012C243.404 547.031 243.422 547.072 243.425 547.091C243.428 547.111 243.423 547.15 243.425 547.17C243.542 548.829 239.524 552.388 234.568 554.976C229.326 557.713 222.459 560.233 215.908 560.889C209.357 561.546 203.117 560.34 199.192 555.659C198.471 559.521 197.176 562.473 195.434 564.7C193.692 566.927 191.523 568.438 189.021 569.431C186.519 570.424 183.691 570.901 180.69 571.06C177.688 571.22 174.494 571.044 171.254 570.771C168.015 570.498 167.562 570.13 164.789 569.825C162.653 572.411 160.601 575.491 158.271 578.314C156.749 580.828 153.057 583.447 155.459 586.619C158.033 590.581 160.434 594.703 162.345 599.024C162.942 602.656 161.881 606.37 161.661 609.905C166.123 612.639 170.572 617.871 170.729 625.438C168.549 626.956 168.838 627.299 166.55 628.171C167.948 629.049 168.606 630.386 169.099 632.087C170.412 634.928 171.963 638.071 170.177 641.076C169.604 642.116 168.925 645.503 167.943 645.701C174.048 647.173 176.777 647.913 182.635 651.668C208.376 669.397 188.708 630.369 195.592 625.333C212.451 619.056 225.034 617.571 220.376 635.057C246.603 653.166 263.715 587.521 273.124 627.856C269.617 634.7 259.044 635.817 258.064 636.45C258.058 636.455 258.043 636.472 258.038 636.477C258.034 636.481 258.015 636.499 258.012 636.503C258.01 636.507 258.013 636.525 258.012 636.529C258.012 636.533 258.011 636.551 258.012 636.555C258.213 636.981 263.848 637.343 280.982 639.552C292.422 652.305 306.24 633.228 307.948 620.234C334.156 620.988 312.69 652.548 331.549 667.437C352.22 655.525 342.877 680.79 354.257 681.813C375.538 692.777 395.252 661.258 408.608 684.362C408.488 687.928 409.421 690.896 411.368 694.008C414.945 695.502 419.818 693.28 420.251 689.645C418.149 683.098 420.084 676.542 425.797 672.483C430.211 668.235 436.421 666.054 442.459 665.413C449.069 663.209 455.589 660.822 462.539 659.815C468.186 657.401 473.069 653.377 478.282 650.117C479.011 646.244 472.445 642.053 470.897 637.633C465.769 632.081 468.639 624.219 465.667 618.053C460.247 612.36 462.839 604.578 461.645 597.658C459.358 590.015 467.185 594.424 470.476 596.633C477.023 603.573 480.927 588.122 487.849 594.32C491.221 594.514 499.263 600.148 499.86 595.66C498.865 585.575 492.141 577.11 484.931 570.482C480.606 565.383 484.094 557.564 481.278 552.137C474.662 549.67 467.005 545.398 466.429 537.498C465.698 535.902 465.061 535.133 464.957 534.844C465.14 534.793 465.295 534.76 465.377 534.739C465.203 534.712 465.078 534.697 465.009 534.712C465.007 534.713 464.986 534.711 464.983 534.712C464.979 534.714 464.961 534.736 464.957 534.739C464.955 534.742 464.932 534.761 464.931 534.765C464.93 534.767 464.931 534.789 464.931 534.791C464.931 534.794 464.93 534.814 464.931 534.817C464.932 534.823 464.929 534.837 464.931 534.844C464.378 534.995 463.46 535.252 462.539 535.527C456.786 538.493 450.197 537.842 443.958 537.472C437.285 536.985 433.051 530.518 429.003 525.855C425.485 519.94 418.225 517.824 411.762 517.997C406.888 518.7 402.401 522.528 398.621 517.734C397.452 516.475 396.437 516.063 395.52 516.157ZM293.072 628.303C280.523 643.744 304.681 628.947 293.072 628.303Z" stroke="white" stroke-width="1.15603"/>
<path fill-rule="evenodd" clip-rule="evenodd" d="M161.492 609.99C157.518 607.022 153.367 606.615 147.371 605.45C141.375 604.286 135.141 603.168 129.893 600.543C124.645 597.917 120.382 593.785 118.327 586.591C120.004 570.946 172.479 590.849 138.168 574.756C139.748 572.752 141.796 571.434 144.183 570.6C146.57 569.766 149.294 569.417 152.226 569.353C155.158 569.289 161.139 569.51 164.798 569.815C162.662 572.401 160.589 575.494 158.259 578.318C156.737 580.831 153.068 583.445 155.47 586.617C158.044 590.579 160.423 594.707 162.334 599.028C162.931 602.66 161.875 606.377 161.492 609.99ZM167.384 645.345C161.475 644.534 151.716 642.635 145.553 641.744C139.391 640.853 133.342 639.631 127.567 637.008C121.791 634.386 116.288 630.364 111.216 623.875C100.606 633.626 93.4482 657.542 75.0214 636.746C59.9813 638.165 60.722 612.775 45.8543 628.294C27.3741 623.278 -2.21296 591.689 33.1108 588.789C56.4536 563.339 58.5972 627.148 78.9874 598.984C81.4687 597.966 83.8618 597.274 86.1768 596.865C88.4917 596.456 90.7283 596.329 92.8965 596.442C95.0648 596.556 97.1646 596.91 99.2058 597.461C101.247 598.012 103.23 598.76 105.163 599.664C107.097 600.567 108.982 601.626 110.829 602.796C112.675 603.967 114.482 605.249 116.26 606.602C118.038 607.954 119.787 609.376 121.517 610.825C123.247 612.274 124.958 613.75 126.659 615.21C128.36 616.67 130.052 618.115 131.744 619.502C133.436 620.888 135.129 622.216 136.832 623.443C138.535 624.67 140.248 625.797 141.981 626.779C143.715 627.762 145.468 628.602 147.252 629.255C149.035 629.908 150.848 630.375 152.701 630.613C154.554 630.851 156.447 630.861 158.39 630.599C160.332 630.337 164.735 629 166.55 628.178C167.948 629.056 168.616 630.385 169.11 632.087C170.422 634.927 171.972 638.062 170.186 641.067C169.538 642.245 168.753 646.431 167.384 645.345ZM80.2617 539.514C78.5032 538.195 76.0527 540.82 73.89 541.213C71.9178 541.572 70.1446 543.051 68.3678 543.762C66.5972 544.47 64.2501 546.568 62.4208 547.585C60.0341 548.911 60.8385 550.266 59.8722 552.682C59.0047 554.851 60.1123 556.598 60.7217 558.629C61.1298 559.99 64.949 561.085 66.2439 561.603C68.7559 562.607 69.7676 562.592 72.6156 562.877C74.7031 563.086 76.6465 561.157 78.1378 560.328C80.2509 559.154 80.6821 558.067 81.9609 556.93C83.6536 555.425 84.5795 554.648 86.6335 553.107C88.7201 551.542 90.566 557.212 90.8813 557.78C92.1411 560.047 93.0605 559.612 95.9787 559.904C100.553 560.361 98.2705 559.997 101.076 562.452C102.195 563.432 102.044 567.289 102.35 568.824C102.936 571.754 103.409 572.004 104.474 573.921C104.502 573.971 110.061 574.699 110.421 574.771C111.06 574.899 113.89 578.116 115.094 579.019C116.34 579.953 120.164 578.43 121.466 578.169C122.784 577.905 125.551 576.349 126.563 576.045C128.75 575.389 130.172 573.965 131.66 573.072C133.807 571.784 134.381 571.01 135.908 569.674C137.409 568.36 137.676 566.103 138.457 564.151C139.572 561.363 136.944 560.154 136.333 559.054C135.593 557.722 131.331 558.341 129.961 558.204C127.639 557.972 125.614 556.985 124.014 556.505C122.573 556.073 122.03 552.849 121.466 551.833C120.32 549.77 119.542 548.2 118.492 546.31C117.653 544.799 114.344 544.057 112.545 543.337C110.836 542.653 107.504 542.426 105.324 542.063C103.13 541.697 101.266 541.444 98.9522 541.213C96.7566 540.993 94.6186 540.992 92.5804 540.788C90.4309 540.573 87.9267 539.942 85.7839 539.514C84.186 539.194 81.8316 539.514 80.2617 539.514ZM84.1104 579.061C83.1948 578.878 79.3198 579.546 77.3139 579.911C75.1306 580.308 73.0481 579.654 71.3669 579.486C68.9042 579.24 67.186 578.869 64.9952 578.212C62.7007 577.524 61.0745 577.258 59.473 576.938C57.6578 576.574 53.7082 579.607 52.2517 580.336C49.4712 581.726 54.6009 586.341 56.9243 588.407C58.7575 590.036 60.0245 591.549 61.1721 593.079C62.7662 595.205 63.0551 595.341 64.5704 596.477C66.0473 597.585 67.7661 594.612 69.243 593.504C71.3053 591.957 73.8364 590.987 76.0395 590.106C78.0506 589.301 82.5062 590.974 84.5352 591.38C87.123 591.898 89.0764 593.198 91.7565 593.929C94.9184 594.791 95.0238 593.178 96.8539 591.805C100.604 588.992 99.317 587.976 98.9778 584.584C98.7784 582.59 95.029 580.96 93.4556 579.911C91.6519 578.709 89.1826 578.417 87.0839 577.787C85.9075 577.434 85.023 578.67 84.1104 579.061ZM161.82 655.055C158.324 659.086 155.617 665.762 150.706 669.646C146.322 673.906 140.79 676.785 136.936 681.688C133.29 684.602 129.19 691.362 124.014 687.338C118.361 687.652 117.344 695.61 111.815 695.813C107.039 696.645 101.988 694.544 99.247 699.874C96.1366 698.256 97.239 690.989 91.8606 694.687C87.6962 699.328 79.0286 697.541 77.6408 691.149C77.0305 686.433 80.1844 678.096 72.188 678.718C66.047 676.215 60.2611 672.674 53.4694 675.005C49.5891 672.016 43.9353 664.371 41.2493 672.752C35.6623 667.752 30.8856 675.117 31.8777 680.703C32.1252 688.361 23.4778 686.552 18.6682 685.214C13.106 684.476 7.9177 681.788 4.85039 676.995C1.73876 672.315 0.919553 665.879 4.10939 661.021C6.71333 655.933 1.44199 651.731 1.48253 646.819C0.539239 648.522 12.3889 643.246 17.1179 640.955C22.6466 639.956 29.4823 635.149 35.2347 637.639C41.9073 638.794 42.8345 645.96 49.6888 646.623C55.4998 648.386 62.1527 648.218 65.9829 653.746C69.7533 656.276 75.3013 665.352 79.5125 660.436C80.3918 656.879 84.3035 653.379 86.1344 658.686C90.2124 663.226 98.0401 660.628 100.303 655.356C104.735 651.59 113.302 655.233 112.446 646.818C111.149 640.61 119.16 636.412 122.544 642.498C123.31 648.273 128.52 651.88 133.901 653.098C138.33 652.426 141.727 657.365 144.354 658.145C143.183 655.301 141.351 650.693 146.288 653.492C151.014 656.765 149.065 644.662 154.71 649.431C157.695 650.407 159.553 653.062 161.82 655.055Z" fill="#E5EDE8" stroke="white" stroke-width="1.15603"/>
<path fill-rule="evenodd" clip-rule="evenodd" d="M243.45 546.781C242.749 546.014 239.813 545.988 230.635 548.859C193.241 566.284 169.621 517.916 136.333 513.177C131.192 502.29 122.518 502.526 127.962 493.419C129.048 491.603 120.582 491.002 118.658 489.467C116.733 487.931 119.589 485.271 122.74 478.77C117.103 457.432 135.316 476.181 143.554 473.248C142.713 468.143 142.666 462.67 145.466 458.805C150.522 451.684 160.042 442.753 166.493 435.867C173.474 427.342 180.125 418.986 186.275 410.536C192.425 402.085 199.947 389.79 204.921 380.886C207.407 376.433 209.725 371.891 211.849 367.279C216.119 370.154 220.601 371.81 225.783 370.474C229.114 369.161 231.319 369.419 231.195 373.217C233.812 378.879 229.381 384.939 226.637 389.803C224.154 394.346 224.487 401.258 230.146 402.982C234.828 402.182 242.13 404.67 245.039 400.535C247.799 396.279 250.411 391.64 253.915 387.857C257.438 385.835 255.248 394.494 255.672 396.683C255.095 399.487 254.383 405.213 258.818 401.882C260.994 400.157 263.479 399.047 265.993 397.71C267.134 399.905 268.832 402.121 270.676 404.251C273.72 409.826 279.433 412.926 283.626 417.148C284.939 425.239 277.449 423.352 272.27 425.052C263.375 426.588 274.879 430.75 273.91 434.996C271.087 441.694 278.877 441.457 280.099 446.382C285.371 454.126 272.787 449.368 272.885 455.498C269.975 460.048 274.18 460.5 277.686 460.118C283.844 460.312 277.976 463.228 275.353 463.99C273.732 468.885 279.698 475.015 282.554 479.286C284.6 484.736 289.284 482.073 291.323 478.197C296.287 471.584 305.693 476.096 311.981 471.914C315.835 467.96 322.883 460.803 327.766 467.412C328.632 468.608 329.577 469.885 330.455 471.221C331.332 472.558 332.142 473.954 332.734 475.39C333.327 476.826 333.704 478.301 333.716 479.794C333.728 481.287 333.376 482.798 332.512 484.306C329.704 489.508 330.253 498.531 322.391 498.406C316.161 499.366 314.213 508.342 307.699 507.955C302.062 507.068 306.086 511.605 307.195 514.105C312.105 516.884 308.545 521.397 304.494 522.667C298.355 522.496 292.456 518.133 286.304 519.462C282.467 523.983 276.632 528.651 270.355 526.302C264.328 524.931 262.679 533.026 258.45 535.914C256.129 542.72 248.73 544.102 243.45 546.781ZM163.944 540.788C163.244 539.738 161.693 537.331 160.546 535.266C159.103 532.669 155.587 531.923 153.324 531.018C150.448 529.868 148.204 528.313 145.254 526.346C143.288 525.035 141.405 523.247 139.307 521.673C137.427 520.264 136.088 520.109 134.209 518.7C132.6 517.492 131.131 516.497 129.537 515.301C127.327 513.644 124.801 511.865 122.74 510.629C119.641 508.769 119.662 508.93 115.943 508.93C114.632 508.93 110.98 511.34 109.572 511.903C106.989 512.936 104.832 513.707 102.35 514.452C100.11 515.124 97.9723 516.428 95.9787 517.425C93.05 518.89 93.2497 520.965 92.1556 523.372C90.9952 525.925 92.9759 527.156 94.2796 528.894C95.123 530.019 98.8777 527.99 99.8017 527.62C101.832 526.808 102.802 526.165 104.474 525.496C106.542 524.669 108.523 524.069 110.846 523.372C112.518 522.871 113.987 522.523 116.368 522.523C119.183 522.523 119.853 523.577 121.466 524.222C122.612 524.68 123.518 528.503 124.014 529.744C124.899 531.955 125.254 533.818 125.714 536.116C126.115 538.122 126.758 539.762 126.988 542.063C127.189 544.077 128.493 545.613 129.112 547.16C130.141 549.732 132.483 549.063 134.634 549.709C136.309 550.211 139.408 549.974 141.006 550.133C143.162 550.349 145.356 552.22 146.953 553.107C148.347 553.881 149.677 555.423 151.625 556.505C153.808 557.718 155.721 558.371 157.997 559.054C160.524 559.812 161.979 560.747 163.519 561.603C165.303 562.594 166.352 564.613 167.767 565.85C168.527 566.515 173.036 565.85 174.139 565.85C177.451 565.85 179.416 566.172 182.634 565.85C184.438 565.67 186.586 563.938 187.732 563.302C190.374 561.834 188.985 561.385 190.28 559.054C190.564 558.543 184.992 555.785 184.758 555.656C183.269 554.828 181.43 552.735 179.661 551.408C177.73 549.959 176.092 548.731 174.564 547.585C172.309 545.894 169.666 545.505 167.342 543.762C166.138 542.859 165.077 541.779 163.944 540.788Z" fill="#CCDCD1" stroke="white" stroke-width="1.15603"/>
<path fill-rule="evenodd" clip-rule="evenodd" d="M272.688 114.306C264.296 127.837 227.55 177.644 261.644 171.227C277.222 156.043 291.913 138.434 278.635 118.554C280.302 111.098 275.189 110.577 272.688 114.306ZM238.706 173.776C262.683 175.31 219.245 186.102 238.706 173.776ZM266.038 398.091C263.479 399.047 260.994 400.157 258.818 401.882C254.383 405.213 255.095 399.487 255.672 396.683C255.248 394.494 257.438 385.835 253.915 387.857C250.411 391.64 247.799 396.279 245.039 400.535C242.13 404.67 234.828 402.182 230.146 402.982C224.487 401.258 224.154 394.346 226.637 389.803C229.381 384.939 233.812 378.879 231.195 373.217C231.319 369.419 229.114 369.161 225.783 370.474C220.601 371.81 216.118 370.154 211.849 367.278C213.981 362.562 215.919 357.774 217.645 352.831C221.097 342.944 221.827 336.184 223.414 324.786C227.153 311.41 231.796 298.798 232.759 285.918C230.354 251.142 247.151 220.805 247.839 185.457C269.643 162.407 263.983 214.736 287.131 206.059C284.321 175.799 323.66 191.601 321.963 217.104C310.07 246.245 335.181 245.578 351.48 245.613C355.659 275.846 321.839 281.99 301.285 280.86C300.871 299.812 322.685 314.519 310.494 333.069C331.141 346.95 269.788 359.014 312.117 365.092C328.361 361.315 334.398 378.692 351.486 374.911C353.658 378.231 352.841 378.368 355.398 380.978C351.675 385.359 349.015 390.133 347.139 395.327C346.355 401.402 342.33 406.202 337.196 409.281C334.434 413.597 323.215 412.917 326.662 406.617C331.384 400.945 324.399 398.475 319.516 397.864C314.907 399.703 311.442 396.497 313.126 391.758C313.297 387.934 323.359 382.505 315.62 380.834C310.273 382.198 309.425 376.111 305.762 374.699C299.386 369.894 302.395 382.406 296.727 382.872C291.752 383.411 289.16 389.635 284.101 388.428C277.932 384.888 277.523 392.792 273.698 395.225C271.228 396.333 268.596 397.135 266.038 398.091Z" fill="#4C845F" stroke="white" stroke-width="1.15603"/>
<path fill-rule="evenodd" clip-rule="evenodd" d="M330.455 471.221C335.016 471.353 336.631 477.515 341.507 476.618C346.27 478.366 349.399 473.543 353.094 472.805C355.641 476.396 358.093 480.921 363.441 479.286C368.616 479.567 373.232 476.532 377.703 474.343C382.017 472.18 386.974 469.835 391.813 471.776C396.662 471.829 399.854 475.441 403.641 477.904C407.897 481.149 413.045 483.124 418.413 483.274C420.683 481.076 420.501 476.111 418.237 473.144C416.213 468.89 411.958 466.143 410.166 461.702C407.587 457.493 406.076 452.79 406.136 447.812C405.801 443.58 407.065 435.928 400.374 438.214C396.72 439.48 392.264 446.351 388.646 442.434C385.221 437.314 392.166 435.188 393.589 431.05C393.588 427.613 394.601 422.226 390.063 421.326C385.662 420.13 381.404 418.013 377.998 415C378.771 411.862 384.584 410.01 380.377 406.673C377.731 402.957 374.853 398.774 375.344 393.989L375.692 393.339L375.732 392.078C372.291 391.197 369.425 390.294 366.641 388.921C363.856 387.548 357.94 383.027 355.398 380.978C351.675 385.359 349.015 390.133 347.139 395.327C346.355 401.402 342.33 406.202 337.196 409.281C334.435 413.597 323.215 412.917 326.662 406.617C331.384 400.945 324.399 398.475 319.516 397.864C314.908 399.703 311.442 396.497 313.126 391.758C313.297 387.934 323.359 382.505 315.62 380.835C310.273 382.198 309.425 376.111 305.762 374.699C299.386 369.894 302.395 382.406 296.727 382.872C291.752 383.411 289.16 389.635 284.101 388.428C277.932 384.888 277.523 392.792 273.698 395.225C271.228 396.333 268.596 397.135 265.993 397.71C267.135 399.905 268.833 402.121 270.677 404.251C273.72 409.826 279.433 412.926 283.626 417.148C284.939 425.239 277.449 423.352 272.27 425.052C263.375 426.588 274.879 430.75 273.91 434.996C271.087 441.694 278.877 441.457 280.099 446.382C285.371 454.126 272.787 449.368 272.885 455.498C269.975 460.048 274.18 460.5 277.686 460.118C283.844 460.312 277.976 463.228 275.353 463.99C273.732 468.885 279.698 475.015 282.554 479.286C284.6 484.736 289.284 482.073 291.323 478.197C296.287 471.584 305.693 476.096 311.981 471.914C315.835 467.96 322.883 460.803 327.766 467.412C328.632 468.608 329.578 469.885 330.455 471.221Z" fill="#CCDCD1" stroke="white" stroke-width="1.15603"/>
<path fill-rule="evenodd" clip-rule="evenodd" d="M465.369 534.73C465.04 534.817 463.786 535.16 462.54 535.532C456.788 538.498 450.187 537.854 443.947 537.484C437.275 536.997 433.061 530.526 429.012 525.864C425.494 519.949 418.221 517.825 411.758 517.998C406.885 518.701 402.391 522.536 398.611 517.741C392.857 511.544 390.897 525.91 385.322 519.779C379.182 517.943 374.116 524.604 370.396 528.705C364.879 531.655 368.251 540.754 361.347 541.565C355.617 544.9 349.405 545.17 343.104 543.595C336.222 545.535 331.824 540.977 328.866 535.416C326.016 527.203 318.947 536.038 314.151 531.249C312.214 527.779 305.86 526.074 305.041 522.671C308.545 521.397 312.105 516.884 307.195 514.105C306.086 511.605 302.062 507.068 307.699 507.955C314.213 508.342 316.161 499.366 322.391 498.406C330.253 498.531 329.704 489.507 332.512 484.306C333.376 482.798 333.728 481.287 333.716 479.794C333.704 478.301 333.327 476.826 332.734 475.39C332.142 473.954 331.332 472.558 330.61 471.236C335.016 471.353 336.631 477.515 341.507 476.618C346.27 478.366 349.399 473.543 353.094 472.805C355.641 476.396 358.093 480.921 363.441 479.286C368.616 479.567 373.232 476.532 377.703 474.343C382.017 472.18 386.974 469.835 391.812 471.776C396.662 471.829 399.854 475.441 403.641 477.904C407.897 481.149 413.045 483.124 418.413 483.274C420.683 481.076 420.501 476.111 418.237 473.144C416.213 468.89 411.958 466.143 410.166 461.702C407.587 457.492 406.076 452.79 406.135 447.812C405.801 443.58 407.065 435.927 400.374 438.214C396.72 439.48 392.264 446.351 388.646 442.434C385.221 437.314 392.166 435.188 393.589 431.05C393.588 427.613 394.6 422.226 390.063 421.326C385.662 420.13 381.404 418.013 377.998 415C378.771 411.862 384.584 410.01 380.377 406.673C377.731 402.957 374.853 398.774 375.344 393.989L375.692 393.339L375.732 392.078C378.043 392.1 380.93 392.1 383.757 391.664C386.583 391.229 389.349 390.358 391.983 389.07C394.616 387.782 397.119 386.077 399.418 383.971C401.717 381.866 403.813 379.36 405.635 376.471C407.457 373.582 409.005 370.311 410.207 366.673C414.476 362.021 420.583 357.408 427.022 352.535C433.462 347.663 440.234 342.531 445.833 336.841C451.433 331.151 457.649 320.813 458.468 313.236C463.85 314.583 467.886 318.687 470.213 323.359C475.479 329.964 481.77 323.795 484.27 318.079C490.856 317.939 496.23 325.51 500.582 330.215C506.835 333.997 498.762 340.62 503.519 343.643C513.122 345.644 503.246 352.953 501.755 357.889C498.551 361.469 487.82 366.851 497.097 370.287C503.623 372.993 507.534 378.668 508.608 385.543C508.553 395.829 519.062 391.989 525.329 395.297C531.91 397.095 540.208 400.225 546.106 395.185C548.726 389.027 561.163 385.3 560.708 395.077C563.101 401.702 568.765 407.97 575.971 409.205C582.902 406.496 589.41 408.532 595.383 411.762C602.696 405.39 606.046 415.413 605.54 421.585C608.58 428.406 618.676 423.696 622.868 429.572C624.161 443.638 599.461 447.63 625.788 454.435C654.873 464.222 626.975 503.396 607.565 488.659C594.033 500.989 573.42 504.605 558.52 507.413C560.061 521.237 522.15 494.927 510.992 494.062C498.094 500.44 535.847 516.155 504.62 506.806C492.091 514.214 473.246 516.838 488.053 535.691C484.334 538.908 483.508 539.481 484.821 540.875C480.98 538.148 474.076 542.521 470.682 536.489C469.358 535.613 466.386 534.885 465.369 534.73Z" fill="#4C845F" stroke="white" stroke-width="1.15603"/>
<path fill-rule="evenodd" clip-rule="evenodd" d="M414.141 286.343C409.608 287.822 402.363 288.13 398.339 293.296C391.969 295.165 394.541 305.35 385.681 302.485C378.676 306.359 377.207 315.856 372.959 320.405C368.291 321.886 379.258 330.833 368.709 330.532C363.403 325.295 361.997 330.289 360.143 334.828C352.364 337.415 343.902 335.75 337.527 342.332C330.585 344.922 323.422 348.147 326.182 356.972C323.445 364.761 331.036 369.343 335.556 362.379C344.609 359.858 352.811 365.995 359.339 371.599C365.401 377.106 371.413 384.901 377.62 388.986C385.265 386.035 395.537 386.932 399.46 378.378C400.672 371.281 403.802 373.938 400.309 359.29C404.081 351.489 414.746 362.543 417.539 352.185C419.923 341.931 431.741 344.403 438.594 339.365C444.425 332.078 451.946 324.865 453.184 315.166C454.45 306.732 450.761 292.478 439.901 294.424C430.992 295.401 421.957 290.225 414.141 286.343ZM443.132 227.563C442.189 226.074 440.497 223.255 439.122 222.129C437.098 220.346 434.889 218.763 432.651 217.267C431.766 216.82 429.699 216.667 428.082 216.175C421.244 213.003 420.077 221.817 416.155 224.92C414.418 230.525 411.07 235.185 406.07 238.343C404.137 243.648 403.127 249.463 404.642 255C405.49 260.372 402.796 267.392 407.964 271.182C413.27 274.198 413.882 281.982 419.676 283.652C425.921 286.552 432.448 282.698 438.724 282.054C444.93 283.254 451.378 282.357 457.148 279.798C462.448 277.728 467.86 276.116 473.585 276.36C478.269 271.547 467.28 270.26 463.386 270.375C463.99 266.597 470.744 259.112 474.851 256.531C473.023 255.313 470.611 253.091 469.486 251.326C468.13 248.622 466.555 246.014 464.347 243.91C462.848 241.917 460.959 240.23 458.635 239.261C455.681 237.858 453.285 235.602 450.764 233.583C448.869 232.491 446.834 231.674 444.863 230.734C443.77 229.39 443.826 229.141 443.008 227.607" fill="#4C845F"/>
<path d="M443.132 227.563C442.189 226.074 440.497 223.255 439.122 222.129C437.098 220.346 434.889 218.763 432.651 217.267C431.766 216.82 429.699 216.667 428.082 216.175C421.244 213.003 420.077 221.817 416.155 224.92C414.418 230.525 411.07 235.185 406.07 238.343C404.137 243.648 403.127 249.463 404.642 255C405.49 260.372 402.796 267.392 407.964 271.182C413.27 274.198 413.882 281.982 419.676 283.652C425.921 286.552 432.448 282.698 438.724 282.054C444.93 283.254 451.378 282.357 457.148 279.798C462.448 277.728 467.86 276.116 473.585 276.36C478.269 271.547 467.28 270.26 463.386 270.375C463.99 266.597 470.744 259.112 474.851 256.531C473.023 255.313 470.611 253.091 469.486 251.326C468.13 248.622 466.555 246.014 464.347 243.91C462.848 241.917 460.959 240.23 458.635 239.261C455.681 237.858 453.285 235.602 450.764 233.583C448.869 232.491 446.834 231.674 444.863 230.734C443.77 229.39 443.826 229.141 443.008 227.607M414.141 286.343C409.608 287.822 402.363 288.13 398.339 293.296C391.969 295.165 394.541 305.35 385.681 302.485C378.676 306.359 377.207 315.856 372.959 320.405C368.291 321.886 379.258 330.833 368.709 330.532C363.403 325.295 361.997 330.289 360.143 334.828C352.364 337.415 343.902 335.75 337.527 342.332C330.585 344.922 323.422 348.147 326.182 356.972C323.445 364.761 331.036 369.343 335.556 362.379C344.609 359.858 352.811 365.995 359.339 371.599C365.401 377.106 371.413 384.901 377.62 388.986C385.265 386.035 395.537 386.932 399.46 378.378C400.672 371.281 403.802 373.938 400.309 359.29C404.081 351.489 414.746 362.543 417.539 352.185C419.923 341.931 431.741 344.403 438.594 339.365C444.425 332.078 451.946 324.865 453.184 315.166C454.45 306.732 450.761 292.478 439.901 294.424C430.992 295.401 421.957 290.225 414.141 286.343Z" stroke="white" stroke-width="1.15603"/>
<path fill-rule="evenodd" clip-rule="evenodd" d="M500.565 214.615C505.022 218.089 509.92 222.199 513.429 227.52C517.309 229.048 517.244 232.569 514.11 234.966C511.818 239.199 505.192 239.039 504.524 244.368C504.991 248.511 504.476 253.47 506.97 257.075C508.913 260.501 512.09 262.904 516.053 263.333C522.625 265.708 530.266 263.96 536.262 268.008C539.619 270.55 545.369 270.609 546.895 275.05C546.459 278.979 548.375 282.654 552.908 281.105C557.051 281.681 560.641 285.645 565.042 283.855C570.294 285.751 572.659 281.722 571.999 276.852C571.732 271.843 574.632 268.688 579.104 266.993C582.581 264.149 587.54 263.648 591.645 265.301C597.233 268.494 603.021 271.403 608.184 275.156C606.974 275.669 606.613 276.646 606.765 277.912C606.917 279.178 607.582 280.735 608.487 282.446C609.392 284.157 610.535 286.024 611.643 287.91C612.751 289.796 613.823 291.703 614.584 293.494C615.346 295.285 615.797 296.961 615.663 298.387C615.529 299.813 614.81 300.989 613.23 301.779C611.651 302.57 609.212 302.975 605.639 302.861C602.558 329.694 639.739 335.563 655.418 329.246C672.732 322.714 679.195 365.94 670.71 381.07C686.731 394.242 658.326 398.346 654.568 407.406C641.65 413.834 640.368 433.389 622.868 429.572C618.676 423.696 608.58 428.406 605.54 421.585C606.046 415.413 602.696 405.39 595.383 411.762C589.41 408.532 582.902 406.496 575.971 409.206C568.765 407.97 563.101 401.702 560.708 395.077C561.163 385.3 548.726 389.027 546.106 395.185C540.208 400.225 531.91 397.095 525.329 395.297C519.062 391.989 508.553 395.829 508.608 385.543C507.534 378.668 503.623 372.993 497.097 370.287C487.82 366.851 498.551 361.469 501.755 357.889C503.246 352.953 513.123 345.644 503.519 343.643C498.762 340.62 506.835 333.997 500.583 330.215C496.23 325.51 490.856 317.939 484.27 318.079C481.77 323.795 475.479 329.964 470.213 323.359C467.886 318.688 463.85 314.583 458.468 313.236C458.557 307.478 458.146 313.512 458.146 313.512C458.557 307.478 458.433 302.729 453.203 293.851C447.165 279.364 460.113 285.991 463.274 282.642C468.1 279.518 475.374 282.744 479.918 278.921C484.984 276.889 483.917 267.408 477.649 268.971C472.544 268.936 469.305 263.197 474.119 260.201C475.542 258.084 475.358 256.071 474.803 256.483C473.023 255.313 470.611 253.091 469.486 251.326C468.13 248.623 466.555 246.014 464.347 243.91C462.848 241.918 460.959 240.23 458.635 239.261C455.681 237.858 453.285 235.602 450.764 233.583C448.869 232.491 446.834 231.674 444.863 230.734C443.77 229.39 443.826 229.141 443.07 227.585C444.927 223.749 445.064 224.768 449.684 224.306C452.959 223.978 455.555 225.638 458.255 226.448C461.621 227.458 463.734 225.19 466.29 223.77C468.132 222.746 469.919 220.544 471.111 219.484C472.312 218.417 474.325 219.484 475.932 219.484C478.26 219.484 479.663 222.37 481.825 223.234C482.708 223.588 488.354 220.408 489.324 220.02C492.42 218.782 495.514 217.758 497.895 216.806C499.149 216.305 499.9 215.497 500.565 214.615Z" fill="#4C845F" stroke="white" stroke-width="1.15603"/>
<path fill-rule="evenodd" clip-rule="evenodd" d="M608.244 275.195C603.021 271.403 597.233 268.494 591.645 265.301C587.54 263.648 582.581 264.149 579.104 266.993C574.632 268.688 571.732 271.844 571.999 276.852C572.659 281.722 570.294 285.751 565.042 283.855C560.641 285.645 557.051 281.681 552.908 281.105C548.375 282.654 546.459 278.979 546.895 275.05C545.369 270.609 539.619 270.55 536.262 268.008C530.266 263.96 522.625 265.708 516.053 263.333C512.09 262.904 508.913 260.501 506.97 257.075C504.476 253.47 504.991 248.511 504.524 244.368C505.192 239.039 511.818 239.199 514.11 234.966C517.244 232.569 517.309 229.048 513.429 227.52C509.92 222.199 505.022 218.089 500.569 214.104C501.229 213.734 501.808 212.78 502.716 211.985C504.624 210.316 505.491 208.383 506.466 206.628C507.449 204.859 511.316 204.423 512.894 203.95C514.944 203.335 517.255 200.025 518.251 199.129C520.205 197.37 521.49 196.651 523.072 194.843C525.638 191.91 525.874 192.371 529.5 190.558C533.008 188.804 534.624 192.877 536.463 194.308C539.686 196.814 540.077 195.768 543.963 195.379C548.037 194.972 548.242 193.014 550.391 190.558C551.829 188.915 552.56 186.546 553.605 184.666C554.829 182.462 555.193 181.5 556.283 178.773C557.681 175.279 554.426 175.036 551.998 173.417C548.651 171.185 547.24 169.51 545.034 166.988C542.974 164.634 544.243 160.44 544.499 157.882C544.72 155.671 543.387 152.859 542.892 150.383C542.227 147.061 539.218 146.154 536.999 144.49C535.274 143.196 533.667 142.179 532.904 140.798C535.657 140.973 538.997 141.248 541.951 140.463C543.566 135.597 541.983 128.984 545.144 123.909C546.764 117.717 552.914 115.204 556.15 110.166C560.494 104.096 570.342 105.517 572.889 112.35C570.791 120.988 582.708 117.157 582.869 124.37C584.411 130.864 591.418 135.835 597.619 131.518C603.058 128.696 610.7 129.546 612.997 135.972C617.993 141.811 623.77 146.984 628.686 152.925C633.064 159.188 638.185 164.655 644.303 169.232C650.665 173.774 651.201 183.18 658.191 186.614C667.081 189.238 656.87 197.381 662.259 202.276C663.24 208.866 669.052 209.883 674.853 212.103C669.781 226.999 668.721 239.92 670.285 260.007C675.258 292.968 631.273 258.22 614.214 274.874C611.213 274.44 609.274 274.567 608.124 275.118" fill="#00501B"/>
<path d="M608.244 275.195C603.021 271.403 597.233 268.494 591.645 265.301C587.54 263.648 582.581 264.149 579.104 266.993C574.632 268.688 571.732 271.844 571.999 276.852C572.659 281.722 570.294 285.751 565.042 283.855C560.641 285.645 557.051 281.681 552.908 281.105C548.375 282.654 546.459 278.979 546.895 275.05C545.369 270.609 539.619 270.55 536.262 268.008C530.266 263.96 522.625 265.708 516.053 263.333C512.09 262.904 508.913 260.501 506.97 257.075C504.476 253.47 504.991 248.511 504.524 244.368C505.192 239.039 511.818 239.199 514.11 234.966C517.244 232.569 517.309 229.048 513.429 227.52C509.92 222.199 505.022 218.089 500.569 214.104C501.229 213.734 501.808 212.78 502.716 211.985C504.624 210.316 505.491 208.383 506.466 206.628C507.449 204.859 511.316 204.423 512.894 203.95C514.944 203.335 517.255 200.025 518.251 199.129C520.205 197.37 521.49 196.651 523.072 194.843C525.638 191.91 525.874 192.371 529.5 190.558C533.008 188.804 534.624 192.877 536.463 194.308C539.686 196.814 540.077 195.768 543.963 195.379C548.037 194.972 548.242 193.014 550.391 190.558C551.829 188.915 552.56 186.546 553.605 184.666C554.829 182.462 555.193 181.5 556.283 178.773C557.681 175.279 554.426 175.036 551.998 173.417C548.651 171.185 547.24 169.51 545.034 166.988C542.974 164.634 544.243 160.44 544.499 157.882C544.72 155.671 543.387 152.859 542.892 150.383C542.227 147.061 539.218 146.154 536.999 144.49C535.274 143.196 533.667 142.179 532.904 140.798C535.657 140.973 538.997 141.248 541.951 140.463C543.566 135.597 541.983 128.984 545.144 123.909C546.764 117.717 552.914 115.204 556.15 110.166C560.494 104.096 570.342 105.517 572.889 112.35C570.791 120.988 582.708 117.157 582.869 124.37C584.411 130.864 591.418 135.835 597.619 131.518C603.058 128.696 610.7 129.546 612.997 135.972C617.993 141.811 623.77 146.984 628.686 152.925C633.064 159.188 638.185 164.655 644.303 169.232C650.665 173.774 651.201 183.18 658.191 186.614C667.081 189.238 656.87 197.381 662.259 202.276C663.24 208.866 669.052 209.883 674.853 212.103C669.781 226.999 668.721 239.92 670.285 260.007C675.258 292.968 631.273 258.22 614.214 274.874C611.213 274.44 609.274 274.567 608.124 275.118" stroke="white" stroke-width="1.15603"/>
<path fill-rule="evenodd" clip-rule="evenodd" d="M530.532 13.6327C532.16 11.7717 526.16 16.1212 523.735 16.6062C521.738 17.0056 519.656 18.2717 517.364 18.7301C515.033 19.1963 512.862 18.9596 510.567 18.7301C508.71 18.5444 505.836 19.1549 503.771 19.1549C501.07 19.1549 499.608 19.8938 497.824 20.4292C496.96 20.6882 495.222 24.857 494.85 25.5266C494.309 26.5012 495.141 30.5606 495.275 31.8983C495.605 35.1968 498.928 33.3597 500.797 33.1727C501.242 33.1282 503.536 29.6629 503.771 29.3497C505.161 27.4962 507.238 28.267 509.293 27.6505C511.415 27.014 513.316 27.1857 515.24 26.801C517.338 26.3813 518.809 25.2885 520.337 24.677C522.282 23.8992 523.51 22.7032 525.01 21.7036C526.708 20.5716 527.296 20.2449 529.258 19.1549C530.895 18.2454 533.659 18.7301 535.629 18.7301C537.212 18.7301 535.063 15.615 534.78 14.0575C534.379 11.8543 531.161 13.6956 530.532 13.6327Z" fill="#00501B" stroke="white" stroke-width="1.12137"/>
<path fill-rule="evenodd" clip-rule="evenodd" d="M413.292 28.9249C412.803 26.2363 408.585 29.3172 408.195 29.3497C406.754 29.4697 406.66 34.0511 406.495 34.8719C406.212 36.2866 408.616 39.6239 409.044 40.394C409.947 42.0188 413.922 42.4945 415.416 42.9427C418.005 43.7195 418.994 41.8515 420.513 41.2436C421.973 40.6599 423.373 38.9929 424.336 38.2701C425.78 37.1877 427.376 36.3928 428.584 35.7214C430.454 34.6824 432.156 34.4973 434.531 34.0223C434.748 33.9788 440.325 35.6907 440.478 35.7214C442.198 36.0655 446.12 34.6781 447.275 34.4471C448.792 34.1437 451.349 33.1824 452.797 32.748C454.561 32.2187 456.318 31.9465 457.894 31.4736C459.855 30.8853 462.507 31.7225 464.266 31.8984C465.743 32.0461 468.702 31.1999 470.213 31.0488C472.242 30.8459 473.323 29.7928 474.885 28.9249C476.713 27.9096 471.413 26.3614 469.363 25.9514C467.08 25.4949 464.882 25.0981 462.567 24.6771C460.26 24.2577 457.909 24.888 455.77 25.1019C453.885 25.2904 451.505 26.3796 449.398 26.801C447.457 27.1893 445.014 26.801 443.027 26.801C440.569 26.801 438.791 27.2233 436.655 27.6506C434.547 28.0722 432.607 29.805 431.133 30.624C428.831 31.9029 425.709 32.3787 423.062 33.1727C420.745 33.8679 418.109 32.6919 416.265 32.3232C414.008 31.8716 414.802 30.6504 413.292 28.9249Z" fill="#00501B" stroke="white" stroke-width="1.12137"/>
<path fill-rule="evenodd" clip-rule="evenodd" d="M394.601 36.1462C394.742 35.3596 392.158 38.2596 391.275 38.9465C389.252 41.1054 386.704 42.6739 383.822 43.3851C380.766 44.1177 381.733 48.2794 380.157 50.2617C377.025 51.0932 374.083 48.8122 370.923 48.9394C368.145 48.2857 365.78 49.4115 364.487 51.9764C362.926 54.7189 359.413 54.5572 356.772 55.4992C352.643 56.2697 348.461 56.8322 344.477 58.2349C340.92 59.2428 339.28 61.2925 335.687 62.2345C332.808 62.6505 331.735 69.3323 330.136 69.2135C327.471 70.8609 324.384 66.4999 324.162 64.3844C325.037 61.9546 326.334 58.8788 328.732 57.6206C334.145 54.2855 338.182 49.7574 344.495 48.1626C348.536 46.7118 352.583 45.2802 356.742 44.1867C361.279 42.6322 366.186 43.2573 370.814 42.0931C373.936 41.2997 376.763 39.6604 379.842 38.721C384.423 36.5656 389.107 34.3831 394.116 33.4807C395.172 33.7493 393.238 35.5791 394.601 36.1462Z" fill="#00501B" stroke="white" stroke-width="1.12137"/>
<path fill-rule="evenodd" clip-rule="evenodd" d="M327.486 77.7749C324.102 77.9336 324.726 78.479 323.663 82.0227C322.311 86.5285 326.067 82.4234 326.211 82.4475C329.479 82.992 327.304 78.6833 327.486 77.7749Z" fill="#00501B" stroke="white" stroke-width="1.12137"/>
<path fill-rule="evenodd" clip-rule="evenodd" d="M349.15 90.9431C350.837 91.2244 347.026 93.9048 347.026 95.6157C347.026 99.7106 351.205 93.5832 351.274 93.4918C352.486 91.8749 349.381 91.2201 349.15 90.9431Z" fill="#00501B" stroke="white" stroke-width="1.12137"/>
<path fill-rule="evenodd" clip-rule="evenodd" d="M312.618 76.5005C313.064 75.3408 310.826 77.0349 310.324 77.2449C308.203 78.6355 305.782 79.6851 304.201 81.7498C302.221 84.3055 299.512 86.1021 297.069 88.1684C294.347 89.9318 290.636 89.7834 288.395 92.3406C286.706 94.0759 284.533 95.2664 282.83 96.9735C281.176 99.5099 279.669 102.151 277.786 104.536C277.382 106.495 280.334 106.872 281.716 107.48C283.759 108.024 285.17 107.379 287.211 106.225C290.268 103.831 291.033 104.213 291.88 102.475C295.304 99.2467 293.825 98.8123 296.089 97.2786C297.806 96.4189 299.245 95.2796 298.858 93.1672C299.144 91.5354 298.56 89.6113 299.611 88.2081C301.427 87.4959 303.533 87.7861 305.385 86.9127C307.311 86.4763 309.626 86.5756 310.91 84.789C312.205 83.0851 314.064 81.8114 314.824 79.7314C315.992 78.4611 315.754 76.9948 313.859 76.9446C313.438 76.8217 313.006 76.7126 312.618 76.5005Z" fill="#00501B" stroke="white" stroke-width="1.12137"/>
<path fill-rule="evenodd" clip-rule="evenodd" d="M522.394 67.0363C522.604 66.5079 526.137 67.1455 526.286 67.8888C526.92 71.0591 527.927 72.4351 526.286 75.3882C525.141 77.45 525.112 81.1445 524.143 82.8876C522.705 85.4763 522.109 86.7429 520.394 89.3157C519.444 90.7409 515.965 92.8855 516.644 96.2795C516.971 97.9138 518.6 103.15 518.251 104.315C517.928 105.391 517.43 108.696 516.108 110.207C514.508 112.036 513.704 113.834 512.359 115.564C511.671 116.448 508.446 118.758 508.609 120.385C508.856 122.86 508.24 124.837 510.752 127.349C512.618 129.215 514.535 132.283 516.644 132.705C519.777 133.332 524.28 133.309 526.286 134.312C528.951 135.645 529.985 134.649 532.178 138.598C532.983 140.045 532.522 140.603 533.094 141.391C533.667 142.179 535.274 143.196 537 144.49C539.218 146.154 542.228 147.061 542.892 150.382C543.387 152.859 544.72 155.67 544.499 157.882C544.243 160.44 542.975 164.634 545.035 166.988C547.241 169.51 548.651 171.185 551.998 173.416C554.427 175.035 557.682 175.279 556.284 178.773C555.193 181.5 554.83 182.462 553.605 184.666C552.561 186.546 551.829 188.915 550.391 190.558C548.243 193.013 548.038 194.972 543.963 195.379C540.078 195.768 539.686 196.814 536.464 194.308C534.625 192.877 533.009 188.804 529.5 190.558C525.874 192.371 525.638 191.91 523.072 194.843C521.49 196.651 520.205 197.37 518.251 199.129C517.256 200.025 514.945 203.335 512.894 203.95C511.316 204.423 507.449 204.859 506.466 206.628C505.492 208.383 504.624 210.315 502.716 211.985C501.808 212.78 501.23 213.734 500.565 214.615C499.9 215.497 499.149 216.304 497.895 216.806C495.514 217.758 492.421 218.782 489.325 220.02C488.354 220.408 482.709 223.587 481.825 223.234C479.664 222.369 478.261 219.484 475.933 219.484C474.326 219.484 472.313 218.417 471.112 219.484C469.919 220.544 468.133 222.746 466.291 223.77C463.735 225.19 461.622 227.458 458.256 226.448C455.556 225.638 452.959 223.978 449.685 224.305C445.065 224.767 444.927 223.749 443.132 227.563C442.19 226.073 440.497 223.255 439.122 222.129C437.098 220.346 434.889 218.762 432.652 217.267C431.766 216.82 429.699 216.667 428.32 216.207C432.205 215.624 420.146 213.975 417.965 213.705C411.942 212.072 405.935 213.784 400.765 216.95C395.672 222.443 392.233 214.997 387.379 213.684C382.191 210.039 375.544 214.533 370.279 210.856C367.012 206.663 361.104 201.006 368.395 197.359C371.4 192.461 373.254 187.028 372.523 181.238C371.975 177.775 371.989 173.327 371.301 169.586C367.636 162.65 372.85 155.721 366.148 150.178C361.824 141.666 372.017 135.443 371.153 127.787C372.421 123.71 373.166 120.402 374.767 116.404C376.381 112.373 376.606 107.964 378.376 103.89C382.55 98.8586 389.222 96.606 393.91 92.0071C397.776 85.6886 401.516 79.1662 409.897 78.0208C418.258 75.3525 425.361 70.1146 433.751 67.5777C439.36 64.3404 444.528 59.7002 450.938 58.2258C458.425 59.3103 463.175 53.6495 469.365 50.9382C476.805 48.5494 484.901 50.3699 492.194 47.4844C502.916 42.9374 504.982 57.3672 504.068 64.776C507.873 67.4172 516.914 67.0155 522.394 67.0363Z" fill="#00501B" stroke="white" stroke-width="1.12137"/>
<path fill-rule="evenodd" clip-rule="evenodd" d="M577.258 0.889194C578.54 -0.393002 574.426 3.1547 573.01 4.28746C571.699 5.33627 578.426 5.98658 578.957 5.98658C582.272 5.98658 580.212 4.10366 581.506 2.16354C582.326 0.933529 578.674 1.31397 577.258 0.889194ZM560.691 4.71223C561.601 3.34768 554.192 4.9926 553.47 5.13702C551.968 5.43739 554.793 8.04112 556.019 8.96006C556.841 9.57685 560.705 8.66139 561.966 8.53528C565.645 8.16735 563.888 6.33847 564.939 5.13702C565.876 4.0661 562.107 4.85384 560.691 4.71223ZM533.094 141.391C532.521 140.603 532.982 140.045 532.178 138.598C529.984 134.649 528.951 135.645 526.286 134.312C524.279 133.309 519.777 133.332 516.644 132.705C514.534 132.284 512.617 129.215 510.751 127.349C508.24 124.837 508.856 122.86 508.608 120.385C508.446 118.758 511.671 116.448 512.358 115.564C513.704 113.834 514.508 112.036 516.108 110.207C517.43 108.696 517.928 105.391 518.251 104.315C518.6 103.15 516.97 97.9138 516.644 96.2795C515.965 92.8856 519.443 90.741 520.393 89.3158C522.108 86.743 522.705 85.4763 524.143 82.8877C525.111 81.1446 525.14 77.45 526.286 75.3883C527.926 72.4352 526.92 71.0592 526.286 67.8888C526.137 67.1456 522.603 66.508 522.221 66.8042C522.777 62.9623 511.68 65.3768 510.652 60.6987C503.196 56.1176 516.894 51.476 513.189 49.1057C504.71 45.6314 514.574 42.87 518.897 44.45C525.504 49.8407 538.223 53.3441 542.099 42.6411C549.053 36.4476 559.463 40.5795 567.913 39.1196C593.645 30.7532 633.484 13.339 632.48 56.111C643.217 81.9871 674.659 63.0983 674.056 90.6151C709.486 95.7008 678.108 140.068 693.198 162.933C689.753 180.807 681.368 197.442 674.853 212.103C669.052 209.883 663.24 208.866 662.259 202.276C656.87 197.381 667.081 189.238 658.191 186.613C651.201 183.18 650.665 173.774 644.303 169.232C638.185 164.655 633.064 159.188 628.686 152.925C623.77 146.984 617.993 141.811 612.997 135.972C610.7 129.546 603.058 128.696 597.619 131.518C591.418 135.835 584.411 130.864 582.869 124.37C582.708 117.157 570.791 120.987 572.889 112.35C570.342 105.516 560.494 104.096 556.15 110.166C552.914 115.204 546.764 117.717 545.144 123.909C541.983 128.984 543.566 135.597 541.951 140.463C538.997 141.248 535.657 140.973 532.714 140.205" fill="#00501B"/>
<path d="M533.094 141.391C532.521 140.603 532.982 140.045 532.178 138.598C529.984 134.649 528.951 135.645 526.286 134.312C524.279 133.309 519.777 133.332 516.644 132.705C514.534 132.284 512.617 129.215 510.751 127.349C508.24 124.837 508.856 122.86 508.608 120.385C508.446 118.758 511.671 116.448 512.358 115.564C513.704 113.834 514.508 112.036 516.108 110.207C517.43 108.696 517.928 105.391 518.251 104.315C518.6 103.15 516.97 97.9138 516.644 96.2795C515.965 92.8856 519.443 90.741 520.393 89.3158C522.108 86.743 522.705 85.4763 524.143 82.8877C525.111 81.1446 525.14 77.45 526.286 75.3883C527.926 72.4352 526.92 71.0592 526.286 67.8888C526.137 67.1456 522.603 66.508 522.221 66.8042C522.777 62.9623 511.68 65.3768 510.652 60.6987C503.196 56.1176 516.894 51.476 513.189 49.1057C504.71 45.6314 514.574 42.87 518.897 44.45C525.504 49.8407 538.223 53.3441 542.099 42.6411C549.053 36.4476 559.463 40.5795 567.913 39.1196C593.645 30.7532 633.484 13.339 632.48 56.111C643.217 81.9871 674.659 63.0983 674.056 90.6151C709.486 95.7008 678.108 140.068 693.198 162.933C689.753 180.807 681.368 197.442 674.853 212.103C669.052 209.883 663.24 208.866 662.259 202.276C656.87 197.381 667.081 189.238 658.191 186.613C651.201 183.18 650.665 173.774 644.303 169.232C638.185 164.655 633.064 159.188 628.686 152.925C623.77 146.984 617.993 141.811 612.997 135.972C610.7 129.546 603.058 128.696 597.619 131.518C591.418 135.835 584.411 130.864 582.869 124.37C582.708 117.157 570.791 120.987 572.889 112.35C570.342 105.516 560.494 104.096 556.15 110.166C552.914 115.204 546.764 117.717 545.144 123.909C541.983 128.984 543.566 135.597 541.951 140.463C538.997 141.248 535.657 140.973 532.714 140.205M577.258 0.889194C578.54 -0.393002 574.426 3.1547 573.01 4.28746C571.699 5.33627 578.426 5.98658 578.957 5.98658C582.272 5.98658 580.212 4.10366 581.506 2.16354C582.326 0.933529 578.674 1.31397 577.258 0.889194ZM560.691 4.71223C561.601 3.34768 554.192 4.9926 553.47 5.13702C551.968 5.43739 554.793 8.04112 556.019 8.96006C556.841 9.57685 560.705 8.66139 561.966 8.53528C565.645 8.16735 563.888 6.33847 564.939 5.13702C565.876 4.0661 562.107 4.85384 560.691 4.71223Z" stroke="white" stroke-width="1.15603"/>
</svg>
